<?xml version="1.0" standalone="no"?>
<!DOCTYPE svg PUBLIC "-//W3C//DTD SVG 20010904//EN"
 "http://www.w3.org/TR/2001/REC-SVG-20010904/DTD/svg10.dtd">
<svg version="1.0" xmlns="http://www.w3.org/2000/svg"
 width="1000.000000pt" height="1000.000000pt" viewBox="0 0 1000.000000 1000.000000"
 preserveAspectRatio="xMidYMid meet">

<g transform="translate(0.000000,1000.000000) scale(0.100000,-0.100000)"
fill="#000000" stroke="none">
<path d="M0 5000 l0 -5000 5000 0 5000 0 0 5000 0 5000 -5000 0 -5000 0 0
-5000z m5063 3217 c33 -14 125 -106 717 -717 195 -201 412 -423 482 -495 l128
-130 0 441 0 442 29 31 29 31 387 0 387 0 29 -29 29 -29 0 -904 1 -903 172
-176 c609 -622 683 -702 697 -752 22 -83 -15 -162 -94 -198 -38 -17 -72 -19
-408 -19 l-368 0 -2 -1227 c-3 -1141 -4 -1232 -21 -1287 -23 -78 -90 -220
-125 -265 -15 -20 -25 -40 -24 -46 2 -5 1 -8 -2 -5 -3 3 -40 -27 -82 -67 -60
-57 -101 -85 -188 -128 -186 -92 -45 -86 -1871 -83 l-1600 3 -70 24 c-273 92
-454 273 -546 546 l-24 70 -3 1233 -3 1232 -367 0 c-336 0 -370 2 -408 19 -90
41 -127 149 -80 238 6 12 88 100 181 195 160 164 546 562 860 888 77 80 226
232 330 339 105 107 210 216 235 242 25 26 132 136 239 245 233 239 457 467
686 704 94 96 244 251 335 345 90 93 180 177 199 187 42 21 90 23 134 5z"/>
<path d="M5395 6280 c-103 -16 -281 -82 -269 -101 3 -5 -1 -6 -8 -4 -22 9
-166 -93 -257 -180 -46 -44 -110 -115 -142 -158 -67 -89 -151 -255 -169 -336
-16 -69 -8 -174 17 -231 90 -203 384 -226 518 -41 45 62 63 132 76 296 14 182
25 274 39 311 11 29 77 104 92 104 11 0 10 -233 -2 -370 -33 -374 -135 -540
-361 -592 -26 -6 -46 -14 -44 -18 2 -4 37 -13 77 -20 40 -7 77 -16 81 -21 5
-4 -7 -32 -27 -63 -20 -31 -36 -59 -36 -62 0 -12 -86 -111 -147 -169 -244
-233 -544 -235 -774 -4 -112 111 -205 273 -270 470 -30 93 -31 95 -26 264 3
94 11 223 18 289 13 112 12 119 -5 132 -53 38 -152 -85 -218 -271 -68 -191
-83 -455 -35 -637 31 -118 89 -245 165 -358 54 -82 190 -228 261 -281 l34 -25
-56 -95 c-95 -162 -161 -328 -194 -489 -29 -143 -22 -548 13 -722 l6 -28 -120
0 c-132 0 -146 -6 -158 -67 -7 -35 18 -97 44 -109 29 -12 959 -17 1952 -9
l954 7 28 28 c36 36 37 78 2 119 l-26 31 -255 0 -255 0 5 273 c7 362 36 535
157 952 18 61 20 90 16 220 -5 159 -23 260 -70 394 -14 41 -26 79 -26 85 0 6
32 24 71 40 84 33 181 104 261 190 129 137 218 413 188 582 -20 119 -74 163
-176 145 -91 -17 -154 -63 -154 -113 0 -36 49 -91 106 -119 l45 -21 -7 -67
c-24 -229 -204 -403 -489 -472 l-92 -22 43 -124 c121 -342 139 -549 68 -776
-37 -116 -70 -185 -156 -323 -115 -184 -157 -286 -179 -425 -15 -99 1 -272 37
-396 6 -23 6 -23 -106 -23 l-113 0 6 188 c6 200 26 313 82 472 134 379 140
409 139 705 0 193 -4 254 -24 375 -44 273 -38 505 19 676 70 208 223 345 512
459 68 27 126 50 128 51 9 7 -122 176 -188 244 -189 190 -406 273 -626 240z
m319 -460 c14 -5 28 -20 31 -32 6 -25 -16 -89 -31 -90 -5 0 -19 -7 -31 -16
-59 -38 -118 42 -82 111 7 12 17 25 23 29 16 11 60 10 90 -2z m-855 -2331 c2
-166 26 -297 95 -512 l34 -107 -172 2 -171 3 -3 38 c-5 54 23 129 70 188 l40
51 -18 62 c-9 33 -17 90 -17 124 l-1 64 -39 -6 c-185 -30 -377 -268 -377 -466
l0 -60 -109 0 -109 0 14 63 c62 291 223 471 523 584 58 22 216 71 232 72 4 1
8 -45 8 -100z"/>
</g>
</svg>